<?xml version="1.0" encoding="iso-8859-1"?>
<!-- Generator: Adobe Illustrator 19.0.0, SVG Export Plug-In . SVG Version: 6.00 Build 0)  -->
<svg version="1.1" id="Layer_1" xmlns="http://www.w3.org/2000/svg" xmlns:xlink="http://www.w3.org/1999/xlink" x="0px" y="0px"
	 viewBox="0 0 512 512" style="enable-background:new 0 0 512 512;" xml:space="preserve">
<path style="fill:#FF7D00;" d="M377.429,238.933H134.57c-13.055,0-23.638,10.583-23.638,23.638l0,0v200.192
	c0,13.055,10.583,23.638,23.638,23.638l0,0h242.858c13.055,0,23.638-10.583,23.638-23.638l0,0V262.571
	C401.066,249.516,390.484,238.933,377.429,238.933L377.429,238.933z M384,418.133V460.8c0,4.713-3.821,8.533-8.534,8.533H268.118
	l-6.059,6.059c-1.61,1.597-3.79,2.488-6.059,2.474h-0.854c-2.548-0.279-4.835-1.69-6.23-3.84l-3.157-4.693h-89.429
	c-15.6,0.047-28.284-12.56-28.331-28.16c0-0.057,0-0.114,0-0.171V264.533c0-4.713,3.821-8.534,8.534-8.534h88.832
	c18.836-11.385,42.433-11.385,61.269,0h68.267c16.071,0,29.099,13.028,29.099,29.099v133.035H384z"/>
<g>
	<rect x="494.933" y="384.002" style="fill:#42210B;" width="17.067" height="42.667"/>
	<rect x="494.933" y="247.467" style="fill:#42210B;" width="17.067" height="42.667"/>
	<path style="fill:#42210B;" d="M494.933,341.334V332.8H486.4v8.534H494.933z M503.466,358.4h-25.6
		c-4.713,0-8.534-3.821-8.534-8.534v-25.599c0-4.713,3.821-8.534,8.534-8.534h25.6c4.713,0,8.533,3.821,8.533,8.534v25.6
		C512,354.58,508.179,358.4,503.466,358.4z"/>
	<path style="fill:#42210B;" d="M494.933,477.867v-8.534H486.4v8.534H494.933z M503.466,494.933h-25.6
		c-4.713,0-8.534-3.821-8.534-8.534v-25.6c0-4.713,3.821-8.534,8.534-8.534h25.6c4.713,0,8.533,3.821,8.533,8.534v25.6
		C512,491.113,508.179,494.933,503.466,494.933z"/>
	<rect x="460.802" y="102.404" style="fill:#42210B;" width="17.067" height="42.667"/>
	<path style="fill:#42210B;" d="M460.8,170.666h25.6c4.713,0,8.534,3.821,8.534,8.534v25.6c0,4.713-3.821,8.534-8.534,8.534h-25.6
		c-4.713,0-8.534-3.821-8.534-8.534v-25.6C452.266,174.487,456.087,170.666,460.8,170.666z M477.867,196.267v-8.534h-8.534v8.534
		H477.867z"/>
	<rect x="435.199" y="452.264" style="fill:#42210B;" width="17.067" height="42.667"/>
	<rect x="435.199" y="315.729" style="fill:#42210B;" width="17.067" height="42.667"/>
	<path style="fill:#42210B;" d="M460.8,273.066v-8.534h-8.534v8.534H460.8z M469.333,290.133h-25.6
		c-4.713,0-8.534-3.821-8.534-8.533v-25.6c0-4.713,3.821-8.534,8.534-8.534h25.6c4.713,0,8.534,3.821,8.534,8.534v25.6
		C477.867,286.313,474.046,290.133,469.333,290.133z"/>
	<path style="fill:#42210B;" d="M460.8,409.6v-8.534h-8.534v8.534H460.8z M469.333,426.667h-25.6c-4.713,0-8.534-3.821-8.534-8.533
		v-25.6c0-4.713,3.821-8.534,8.534-8.534h25.6c4.713,0,8.534,3.821,8.534,8.534v25.6
		C477.867,422.846,474.046,426.667,469.333,426.667z"/>
	<rect x="418.133" y="170.666" style="fill:#42210B;" width="17.067" height="42.667"/>
	<path style="fill:#42210B;" d="M426.667,128v-8.534h-8.533V128H426.667z M443.733,110.934v25.6c0,4.713-3.821,8.534-8.534,8.534
		h-25.6c-4.713,0-8.534-3.821-8.534-8.534v-25.6c0-4.713,3.821-8.534,8.534-8.534h25.6
		C439.913,102.4,443.733,106.22,443.733,110.934z"/>
</g>
<path style="fill:#FF9900;" d="M384,285.098v133.035h-17.067v34.133H332.8v17.067h-64.682l28.075-28.075
	c3.346-3.319,3.368-8.722,0.049-12.068c-0.017-0.017-0.033-0.033-0.049-0.049l-11.093-11.008l11.093-11.008
	c3.346-3.319,3.368-8.722,0.049-12.068c-0.017-0.017-0.033-0.033-0.049-0.049L281.6,380.502v-19.371
	c20.834-9.882,34.119-30.872,34.133-53.93c0.13-2.017,0.13-4.041,0-6.059c0-1.878-0.426-3.669-0.768-5.461v-1.28l-1.621-4.267
	c-1.118-3.587-2.547-7.07-4.267-10.411c-0.331-0.774-0.731-1.516-1.195-2.219l-0.683-0.939c-1.034-1.913-2.264-3.716-3.669-5.376
	l0,0c-0.716-0.98-1.485-1.92-2.304-2.816c-0.796-0.911-1.65-1.849-2.56-2.816c-0.846-0.919-1.759-1.775-2.73-2.56
	c-0.874-0.87-1.816-1.669-2.816-2.389l0,0c-2.021-1.687-4.159-3.227-6.4-4.608h68.267C371.024,256.047,384,269.061,384,285.098z"/>
<path style="fill:#42210B;" d="M375.467,469.333H332.8v-17.067h34.133v-34.133H384V460.8
	C384,465.512,380.179,469.333,375.467,469.333z"/>
<g>
	<path style="fill:#FF9900;" d="M309.077,279.893c0-0.768-0.768-1.45-1.195-2.219C308.346,278.377,308.746,279.119,309.077,279.893z
		"/>
	<path style="fill:#FF9900;" d="M303.531,271.189c1.405,1.66,2.635,3.462,3.669,5.376
		C306.136,274.67,304.908,272.871,303.531,271.189z"/>
	<path style="fill:#FF9900;" d="M301.056,268.118c0.818,0.896,1.588,1.836,2.304,2.816
		C302.644,269.953,301.874,269.013,301.056,268.118z"/>
	<path style="fill:#FF9900;" d="M295.765,262.742c0.971,0.786,1.884,1.641,2.73,2.56L295.765,262.742z"/>
	<path style="fill:#FF9900;" d="M295.765,262.742l-2.816-2.389C293.949,261.073,294.891,261.871,295.765,262.742z"/>
</g>
<rect x="273.07" y="102.404" style="fill:#42210B;" width="17.067" height="42.667"/>
<path style="fill:#FF9900;" d="M292.608,260.01c-1.878-1.365-3.84-2.73-5.888-4.011C288.767,257.208,290.733,258.548,292.608,260.01
	z"/>
<path style="fill:#42210B;" d="M281.6,196.267v-8.534h-8.534v8.534H281.6z M290.133,170.666c4.713,0,8.534,3.821,8.534,8.534v25.6
	c0,4.713-3.821,8.534-8.534,8.534h-25.6c-4.713,0-8.534-3.821-8.534-8.534v-25.6c0-4.713,3.821-8.534,8.534-8.534H290.133z"/>
<path style="fill:#FFF8EF;" d="M255.999,51.2c-47.128,0-85.333,38.205-85.333,85.333v85.333h-25.6v-85.333
	c0-61.267,49.667-110.934,110.934-110.934s110.934,49.667,110.934,110.934v85.333h-25.6v-85.333
	C341.334,89.405,303.128,51.2,255.999,51.2z"/>
<path style="fill:#E0CBB5;" d="M349.866,221.866v-85.333c0-51.842-42.025-93.867-93.867-93.867s-93.867,42.025-93.867,93.867v85.333
	h-8.534v-85.333c0-56.554,45.846-102.4,102.4-102.4s102.4,45.846,102.4,102.4v85.333H349.866z"/>
<g>
	<path style="fill:#42210B;" d="M264.533,298.667c0-4.713-3.821-8.534-8.534-8.534c-4.713,0-8.534,3.821-8.534,8.534
		s3.821,8.534,8.534,8.534C260.713,307.2,264.533,303.38,264.533,298.667z M255.999,273.066c14.139,0,25.6,11.462,25.6,25.6
		c0,14.139-11.462,25.6-25.6,25.6c-14.139,0-25.6-11.462-25.6-25.6C230.4,284.528,241.862,273.066,255.999,273.066z"/>
	<rect x="221.863" y="170.666" style="fill:#42210B;" width="17.067" height="42.667"/>
</g>
<path style="fill:#FFF8EF;" d="M255.999,324.267c14.139,0,25.6-11.462,25.6-25.6c0-14.139-11.462-25.6-25.6-25.6
	c-14.139,0-25.6,11.462-25.6,25.6C230.4,312.805,241.862,324.267,255.999,324.267z M213.333,307.199
	c-0.014-23.564,19.078-42.678,42.642-42.691c23.564-0.014,42.678,19.078,42.691,42.642c0.01,18.079-11.375,34.203-28.416,40.241
	c-3.412,1.193-5.703,4.407-5.717,8.021v28.586c-0.013,2.268,0.877,4.449,2.474,6.059l11.093,11.008l-11.093,11.008
	c-3.346,3.319-3.368,8.722-0.049,12.068c0.017,0.017,0.033,0.033,0.049,0.049l11.093,11.008l-20.736,20.736l-9.899-14.763v-85.76
	c-0.015-3.615-2.305-6.828-5.717-8.021C224.725,341.359,213.344,325.262,213.333,307.199z"/>
<path style="fill:#42210B;" d="M238.933,119.466h-8.534V128h8.534V119.466z M247.467,145.067h-25.6
	c-4.713,0-8.534-3.821-8.534-8.534v-25.6c0-4.713,3.821-8.534,8.534-8.534h25.6c4.713,0,8.534,3.821,8.534,8.534v25.6
	C255.999,141.246,252.179,145.067,247.467,145.067z"/>
<g>
	<path style="fill:#FF9900;" d="M219.477,260.01c1.823-1.49,3.764-2.831,5.802-4.011
		C223.266,257.218,221.329,258.558,219.477,260.01z"/>
	<path style="fill:#FF9900;" d="M219.051,260.351l-2.816,2.389C217.109,261.871,218.05,261.073,219.051,260.351z"/>
	<path style="fill:#FF9900;" d="M216.234,262.742l-2.73,2.56C214.35,264.382,215.263,263.527,216.234,262.742z"/>
	<path style="fill:#FF9900;" d="M210.944,268.118c-0.818,0.896-1.588,1.836-2.304,2.816
		C209.305,269.916,210.078,268.971,210.944,268.118z"/>
	<path style="fill:#FF9900;" d="M208.469,271.189c-1.377,1.682-2.604,3.48-3.669,5.376
		C205.834,274.652,207.064,272.85,208.469,271.189z"/>
	<path style="fill:#FF9900;" d="M204.117,277.674c-0.426,0.768-0.854,1.45-1.195,2.219
		C203.254,279.119,203.654,278.377,204.117,277.674z"/>
	<path style="fill:#FF9900;" d="M179.2,273.066v-17.067h46.08c-2.038,1.179-3.979,2.52-5.802,4.011l0,0
		c-1.001,0.72-1.942,1.52-2.816,2.389c-0.971,0.786-1.884,1.641-2.73,2.56c-0.911,0.91-1.763,1.849-2.56,2.816
		c-0.866,0.854-1.638,1.798-2.304,2.816l0,0c-1.405,1.66-2.635,3.462-3.669,5.376l-0.683,1.109
		c-0.464,0.703-0.863,1.445-1.195,2.219c-1.72,3.341-3.147,6.824-4.267,10.411l-1.024,4.096v1.28c0,1.792-0.598,3.584-0.768,5.461
		c-0.557,2.188-0.956,4.412-1.195,6.656c0.015,23.058,13.3,44.048,34.133,53.93v82.603c-0.004,1.702,0.501,3.366,1.45,4.778
		l13.91,20.821h-89.429c-15.6,0.047-28.284-12.56-28.331-28.16c0-0.057,0-0.115,0-0.171v-133.8h17.067v-34.133H179.2z"/>
</g>
<g>
	<path style="fill:#42210B;" d="M179.2,255.999v17.067h-34.133v34.133H128v-42.667c0-4.713,3.821-8.534,8.534-8.534H179.2V255.999z"
		/>
	<path style="fill:#42210B;" d="M255.999,68.267c-37.703,0-68.267,30.564-68.267,68.267v85.333h136.534v-85.333
		C324.267,98.83,293.702,68.267,255.999,68.267z M128,136.533c0-70.692,57.308-128,128-128s128,57.308,128,128v86.016
		c19.646,3.178,34.095,20.121,34.133,40.022v200.192c-0.047,22.46-18.243,40.657-40.704,40.704H134.57
		c-22.46-0.047-40.657-18.243-40.704-40.704V262.571c0.038-19.901,14.487-36.844,34.133-40.022v-86.016H128z M255.999,25.6
		c-61.267,0-110.934,49.667-110.934,110.934v85.333h25.6v-85.333c0-47.128,38.205-85.333,85.333-85.333s85.333,38.205,85.333,85.333
		v85.333h25.6v-85.333C366.933,75.266,317.266,25.6,255.999,25.6z M255.999,238.933H134.57c-13.055,0-23.638,10.583-23.638,23.638
		l0,0v200.192c0,13.055,10.583,23.638,23.638,23.638l0,0h242.858c13.055,0,23.638-10.583,23.638-23.638l0,0V262.571
		c0-13.055-10.583-23.638-23.638-23.638l0,0H255.999z"/>
	<rect x="76.8" y="170.666" style="fill:#42210B;" width="17.067" height="42.667"/>
	<path style="fill:#42210B;" d="M93.867,128v-8.534h-8.534V128H93.867z M110.934,110.934v25.6c0,4.713-3.821,8.534-8.534,8.534H76.8
		c-4.713,0-8.534-3.821-8.534-8.534v-25.6c0-4.713,3.821-8.534,8.534-8.534h25.6C107.113,102.4,110.934,106.22,110.934,110.934z"/>
	<rect x="59.734" y="452.264" style="fill:#42210B;" width="17.067" height="42.667"/>
	<rect x="59.734" y="315.729" style="fill:#42210B;" width="17.067" height="42.667"/>
	<rect x="34.133" y="102.404" style="fill:#42210B;" width="17.067" height="42.667"/>
	<path style="fill:#42210B;" d="M59.734,273.066v-8.534H51.2v8.534H59.734z M68.267,290.133H42.667
		c-4.713,0-8.534-3.821-8.534-8.533v-25.6c0-4.713,3.821-8.534,8.534-8.534h25.6c4.713,0,8.534,3.821,8.534,8.534v25.6
		C76.8,286.313,72.98,290.133,68.267,290.133z"/>
	<path style="fill:#42210B;" d="M59.734,409.6v-8.534H51.2v8.534H59.734z M42.667,384h25.6c4.713,0,8.534,3.821,8.534,8.534v25.6
		c0,4.713-3.821,8.533-8.534,8.533h-25.6c-4.713,0-8.534-3.821-8.534-8.533v-25.6C34.133,387.82,37.954,384,42.667,384z"/>
	<path style="fill:#42210B;" d="M42.667,196.267v-8.534h-8.534v8.534H42.667z M25.6,170.666h25.6c4.713,0,8.534,3.821,8.534,8.534
		v25.6c0,4.713-3.821,8.534-8.534,8.534H25.6c-4.713,0-8.534-3.821-8.534-8.534v-25.6C17.067,174.487,20.887,170.666,25.6,170.666z"
		/>
	<rect y="384.002" style="fill:#42210B;" width="17.067" height="42.667"/>
	<rect y="247.467" style="fill:#42210B;" width="17.067" height="42.667"/>
	<path style="fill:#42210B;" d="M25.6,341.334V332.8h-8.534v8.534H25.6z M42.667,324.267v25.6c0,4.713-3.821,8.534-8.534,8.534
		H8.534c-4.713,0-8.534-3.821-8.534-8.534v-25.6c0-4.713,3.821-8.534,8.534-8.534h25.6
		C38.847,315.733,42.667,319.554,42.667,324.267z"/>
	<path style="fill:#42210B;" d="M25.6,477.867v-8.534h-8.534v8.534H25.6z M42.667,460.8v25.6c0,4.713-3.821,8.534-8.534,8.534H8.534
		c-4.713,0-8.534-3.821-8.534-8.534v-25.6c0-4.713,3.821-8.534,8.534-8.534h25.6C38.847,452.266,42.667,456.087,42.667,460.8z"/>
	<path style="fill:#42210B;" d="M212.677,306.095c0.01,18.363,11.581,34.729,28.89,40.862c3.469,1.213,5.798,4.48,5.813,8.155V442.3
		l10.064,15.008l21.081-21.082l-11.278-11.192c-3.402-3.374-3.425-8.867-0.05-12.269c0.017-0.017,0.034-0.034,0.05-0.05
		l11.278-11.192l-11.278-11.192c-1.624-1.637-2.529-3.853-2.516-6.159v-29.063c0.015-3.675,2.343-6.942,5.813-8.155
		c22.581-8.001,34.4-32.794,26.399-55.374c-8.001-22.581-32.794-34.4-55.374-26.399
		C224.242,271.323,212.667,287.714,212.677,306.095z M230.028,360.924c-21.18-10.047-34.687-31.387-34.702-54.829
		c-0.132-2.051-0.132-4.108,0-6.159c0-1.908,0.78-6.854,0.78-6.854s0.751-3.131,1.041-4.164c1.032-3.678,5.119-12.059,5.552-12.84
		l0.694-1.128c1.082-1.927,2.33-3.755,3.73-5.465l0,0c0.728-0.997,1.51-1.952,2.342-2.863c0.752-0.925,1.619-1.88,2.602-2.863
		l2.777-2.602l2.863-2.429l0,0c2.256-1.731,4.632-3.297,7.114-4.685l0,0c19.15-11.575,43.14-11.575,62.291,0l0,0
		c2.083,1.301,4.078,2.69,5.986,4.078l0,0l2.863,2.429l2.776,2.602c0.983,0.925,1.85,1.88,2.602,2.863
		c0.832,0.912,1.614,1.867,2.342,2.863l0,0c1.4,1.71,2.649,3.539,3.73,5.465l0.694,1.128c0.434,0.78,0.867,1.474,1.215,2.256
		c1.749,3.396,3.2,6.938,4.337,10.584c0,0,3.123,9.58,3.123,17.785c-0.016,23.442-13.522,44.783-34.702,54.829v19.693l14.835,14.749
		c3.402,3.374,3.425,8.867,0.05,12.269c-0.017,0.017-0.034,0.034-0.05,0.05l-11.278,11.192l11.278,11.192
		c3.402,3.374,3.425,8.867,0.05,12.269c-0.017,0.017-0.034,0.034-0.05,0.05l-28.542,28.542l-6.159,6.159
		c-1.637,1.624-3.853,2.529-6.159,2.516h-0.867c-2.59-0.285-4.916-1.717-6.333-3.904l-3.21-4.772l-14.141-21.255
		c-0.948-1.411-1.462-3.071-1.474-4.772v-83.982H230.028z"/>
</g>
<g>
</g>
<g>
</g>
<g>
</g>
<g>
</g>
<g>
</g>
<g>
</g>
<g>
</g>
<g>
</g>
<g>
</g>
<g>
</g>
<g>
</g>
<g>
</g>
<g>
</g>
<g>
</g>
<g>
</g>
</svg>
